# .PCD v0.7 - Point Cloud Data file format
VERSION 0.7
FIELDS x y z
SIZE 4 4 4
TYPE F F F
COUNT 1 1 1
WIDTH 102
HEIGHT 1
VIEWPOINT 0 0 0 1 0 0 0
POINTS 102
DATA ascii
1.132729 0.041810 0.000000
0.633069 0.023367 0.000000
0.133409 0.004924 0.000000
-0.366251 -0.013519 0.000000
-0.865910 -0.031961 0.000000
-1.132729 -0.041810 0.000000
1.095843 1.041129 0.000000
0.596183 1.022687 0.000000
0.096524 1.004244 0.000000
-0.403136 0.985801 0.000000
-0.902796 0.967358 0.000000
-1.169614 0.957510 0.000000
1.058958 2.040449 0.000000
0.559298 2.022006 0.000000
0.059638 2.003563 0.000000
-0.440022 1.985120 0.000000
-0.939681 1.966678 0.000000
-1.206500 1.956829 0.000000
1.022072 3.039768 0.000000
0.522412 3.021325 0.000000
0.022752 3.002883 0.000000
-0.476907 2.984440 0.000000
-0.976567 2.965997 0.000000
-1.243385 2.956149 0.000000
0.985186 4.039088 0.000000
0.485527 4.020645 0.000000
-0.014133 4.002202 0.000000
-0.513793 3.983759 0.000000
-1.013453 3.965317 0.000000
-1.280271 3.955468 0.000000
0.948301 5.038407 0.000000
0.448641 5.019964 0.000000
-0.051019 5.001522 0.000000
-0.550678 4.983079 0.000000
-1.050338 4.964636 0.000000
-1.317156 4.954788 0.000000
0.911415 6.037727 0.000000
0.411756 6.019284 0.000000
-0.087904 6.000841 0.000000
-0.587564 5.982398 0.000000
-1.087224 5.963956 0.000000
-1.354042 5.954107 0.000000
0.874530 7.037046 0.000000
0.374870 7.018603 0.000000
-0.124790 7.000161 0.000000
-0.624450 6.981718 0.000000
-1.124109 6.963275 0.000000
-1.390928 6.953427 0.000000
0.837644 8.036366 0.000000
0.337984 8.017923 0.000000
-0.161675 7.999480 0.000000
-0.661335 7.981037 0.000000
-1.160995 7.962595 0.000000
-1.427813 7.952746 0.000000
0.800759 9.035685 0.000000
0.301099 9.017242 0.000000
-0.198561 8.998800 0.000000
-0.698221 8.980357 0.000000
-1.197880 8.961914 0.000000
-1.464699 8.952066 0.000000
0.763873 10.035005 0.000000
0.264213 10.016562 0.000000
-0.235447 9.998119 0.000000
-0.735106 9.979676 0.000000
-1.234766 9.961234 0.000000
-1.501584 9.951385 0.000000
0.726987 11.034324 0.000000
0.227328 11.015881 0.000000
-0.272332 10.997439 0.000000
-0.771992 10.978996 0.000000
-1.271652 10.960553 0.000000
-1.538470 10.950705 0.000000
0.690102 12.033644 0.000000
0.190442 12.015201 0.000000
-0.309218 11.996758 0.000000
-0.808877 11.978315 0.000000
-1.308537 11.959873 0.000000
-1.575355 11.950024 0.000000
0.653216 13.032963 0.000000
0.153557 13.014520 0.000000
-0.346103 12.996078 0.000000
-0.845763 12.977635 0.000000
-1.345423 12.959192 0.000000
-1.612241 12.949344 0.000000
0.616331 14.032283 0.000000
0.116671 14.013840 0.000000
-0.382989 13.995397 0.000000
-0.882649 13.976954 0.000000
-1.382308 13.958512 0.000000
-1.649127 13.948663 0.000000
0.579445 15.031602 0.000000
0.079785 15.013159 0.000000
-0.419874 14.994717 0.000000
-0.919534 14.976274 0.000000
-1.419194 14.957831 0.000000
-1.686012 14.947983 0.000000
0.558917 15.587771 0.000000
0.059257 15.569329 0.000000
-0.440403 15.550886 0.000000
-0.940063 15.532443 0.000000
-1.439722 15.514000 0.000000
-1.706541 15.504152 0.000000
